<svg width="24" height="24" viewBox="0 0 24 24" fill="none" xmlns="http://www.w3.org/2000/svg">
<g clip-path="url(#clip0_93_166)">
<path d="M16.7015 7.3118C16.7505 7.35557 16.7916 7.40962 16.8213 7.47265C16.8917 7.62204 16.8825 7.78841 16.8107 7.92382L11.2328 19.5415C11.1727 19.7875 10.936 19.9542 10.6789 19.9212C10.4889 19.8967 10.3374 19.7695 10.2729 19.6024C10.2286 19.4964 10.2205 19.3754 10.2559 19.2603L11.0686 12.9525L4.69264 13.7279C4.61447 13.7417 4.53536 13.7365 4.46146 13.7145C4.33625 13.6776 4.22949 13.593 4.16512 13.4792C4.13334 13.423 4.11196 13.3599 4.10367 13.2918C4.08668 13.1514 4.12913 13.0174 4.21125 12.9152C4.26506 12.8481 4.33605 12.7948 4.41848 12.7622L16.1324 7.24019C16.2324 7.18814 16.3488 7.1701 16.4626 7.19256C16.5034 7.20068 16.5439 7.21407 16.5832 7.23293C16.6273 7.25409 16.6669 7.2809 16.7015 7.3118Z" fill="white"/>
<path fill-rule="evenodd" clip-rule="evenodd" d="M3.51473 20.4853C8.20104 25.1716 15.799 25.1716 20.4853 20.4853C25.1716 15.799 25.1716 8.20104 20.4853 3.51473C15.799 -1.17158 8.20104 -1.17158 3.51473 3.51473C-1.17158 8.20104 -1.17158 15.799 3.51473 20.4853ZM5.51748 18.4825C9.09758 22.0626 14.9023 22.0627 18.4825 18.4825C22.0627 14.9023 22.0626 9.09758 18.4825 5.51748C14.9024 1.93737 9.09768 1.93728 5.51748 5.51748C1.93728 9.09768 1.93737 14.9024 5.51748 18.4825Z" fill="white"/>
</g>
<defs>
<clipPath id="clip0_93_166">
<rect width="24" height="24" fill="white"/>
</clipPath>
</defs>
</svg>
