<svg width="24" height="24" viewBox="0 0 24 24" fill="none" xmlns="http://www.w3.org/2000/svg">
<g clip-path="url(#clip0_109_31)">
<path d="M21.5658 18.5579C19.4514 21.7067 15.8575 23.7788 11.7796 23.7788C5.27389 23.7788 0 18.505 0 11.9993C0 5.49361 5.27389 0.219727 11.7796 0.219727C15.6389 0.219727 19.0648 2.07574 21.2133 4.94389L24 3.73152L21.8964 10.8727L15.2377 7.54365L17.8629 6.40154C16.2915 4.5817 13.9674 3.42995 11.3743 3.42995C6.64161 3.42995 2.80499 7.26657 2.80499 11.9993C2.80499 16.732 6.64161 20.5686 11.3743 20.5686C14.4447 20.5686 17.1379 18.9539 18.6511 16.5272L21.5658 18.5579Z" fill="#999999"/>
</g>
<defs>
<clipPath id="clip0_109_31">
<rect width="24" height="24" fill="white"/>
</clipPath>
</defs>
</svg>
