<svg width="24" height="24" viewBox="0 0 24 24" fill="none" xmlns="http://www.w3.org/2000/svg">
<path d="M15.2092 20.6476C16.0502 20.2555 16.8071 19.7563 17.4714 19.174L15.923 17.7777C15.4487 18.1665 14.9186 18.5029 14.3372 18.774C10.596 20.5186 6.14897 18.9 4.40444 15.1588C2.65991 11.4177 4.2785 6.97064 8.01966 5.22611C11.5454 3.58201 15.6981 4.92494 17.6248 8.21649L14.8551 9.21012L20.21 12.3218L22.3656 6.51574L19.5959 7.50939C17.2284 3.06145 11.7646 1.19779 7.14425 3.35231C2.36829 5.57938 0.301996 11.2565 2.52907 16.0324C4.75613 20.8084 10.4332 22.8747 15.2092 20.6476Z" fill="#A1A1A1"/>
</svg>
