<svg width="24" height="24" viewBox="0 0 24 24" fill="none" xmlns="http://www.w3.org/2000/svg">
<path d="M1.85671 18.6028C1.80619 18.6028 1.75566 18.5965 1.70514 18.5839C1.64199 18.5839 1.58515 18.5776 1.53463 18.5649L1.49673 18.5839H1.47779C1.1115 18.5839 0.820994 18.4765 0.606272 18.2618C0.37892 18.0597 0.221037 17.8197 0.132622 17.5419C0.0442073 17.264 0 17.0303 0 16.8408C0 16.3356 0.18946 15.9378 0.56838 15.6473C0.93467 15.3567 1.38937 15.2115 1.93249 15.2115C2.223 15.2115 2.43772 15.2999 2.57666 15.4767C2.72822 15.6662 2.82927 15.8683 2.87979 16.083C2.90505 16.1462 2.93032 16.2156 2.95558 16.2914C2.98084 16.3672 2.99347 16.443 2.99347 16.5188C2.99347 16.7082 2.88611 16.8661 2.67139 16.9924C2.45667 17.1187 2.26721 17.1819 2.10301 17.1819C2.01459 17.1819 1.95144 17.1503 1.91355 17.0871C1.86302 17.0366 1.83776 16.9798 1.83776 16.9166C1.83776 16.7272 1.92618 16.6324 2.10301 16.6324C2.15353 16.6324 2.20405 16.6135 2.25457 16.5756C2.31773 16.5503 2.36825 16.5251 2.40614 16.4998C2.39351 16.4998 2.37457 16.4935 2.3493 16.4809C2.33667 16.4809 2.31773 16.4809 2.29247 16.4809C2.20405 16.443 2.12195 16.3988 2.04617 16.3483C1.95775 16.3104 1.87565 16.2662 1.79987 16.2156H1.78092C1.74303 16.3293 1.66725 16.3861 1.55357 16.3861C1.50305 16.3861 1.45253 16.3798 1.402 16.3672C1.35148 16.3546 1.30727 16.3419 1.26938 16.3293C1.25675 16.3672 1.24412 16.4051 1.23149 16.443C1.21886 16.4809 1.1936 16.5188 1.15571 16.5567C1.1936 16.6072 1.21254 16.6767 1.21254 16.7651C1.21254 16.8535 1.18097 16.9293 1.11781 16.9924C1.05466 17.0682 0.978877 17.1187 0.890462 17.144L0.833624 17.1629V17.2766C0.858886 17.264 0.884147 17.2513 0.909408 17.2387C0.93467 17.2387 0.959931 17.2387 0.985192 17.2387C1.12413 17.2387 1.20623 17.2892 1.23149 17.3903C1.25675 17.504 1.28833 17.624 1.32622 17.7503C1.35148 17.8766 1.4399 17.965 1.59146 18.0155C1.95775 18.0029 2.27352 17.9397 2.53876 17.826C2.80401 17.7124 3.03136 17.5608 3.22082 17.3713C3.25871 17.2829 3.30924 17.1945 3.37239 17.1061C3.43554 17.0177 3.51133 16.9545 3.59974 16.9166L3.61869 16.8787C3.61869 16.8535 3.63132 16.8156 3.65658 16.7651V16.7082C3.65658 16.5061 3.75131 16.3735 3.94077 16.3104C4.05445 16.0956 4.16181 15.8809 4.26285 15.6662C4.3639 15.4641 4.47126 15.2683 4.58493 15.0789C4.61019 14.7757 4.56599 14.5168 4.45231 14.3021C4.33864 14.0747 4.2818 13.86 4.2818 13.6579C4.2818 13.62 4.2818 13.5885 4.2818 13.5632C4.29443 13.5253 4.30706 13.4874 4.31969 13.4495C4.15549 13.4243 4.0355 13.3232 3.95972 13.1464C3.89656 12.9569 3.8713 12.7864 3.88393 12.6348H3.71342C3.58711 12.6348 3.51133 12.578 3.48607 12.4643C3.47343 12.3506 3.47975 12.2243 3.50501 12.0854C3.53027 11.9338 3.52396 11.8265 3.48607 11.7633C3.4608 11.7128 3.41028 11.6118 3.3345 11.4602C3.27134 11.3086 3.19556 11.1507 3.10715 10.9865C3.03136 10.8223 2.94926 10.7023 2.86085 10.6266H1.72409C1.522 10.6266 1.42095 10.5318 1.42095 10.3424C1.42095 10.2792 1.44621 10.2224 1.49673 10.1719C1.54726 10.1087 1.61673 10.0771 1.70514 10.0771C1.78092 10.0645 1.85671 10.0582 1.93249 10.0582C1.99565 10.0582 2.06511 10.0582 2.1409 10.0582C2.4314 9.95713 2.74086 9.89398 3.06925 9.86872C3.41028 9.83083 3.7071 9.76767 3.95972 9.67926C4.14918 9.4898 4.34495 9.35086 4.54704 9.26245C4.64809 9.18666 4.74282 9.14245 4.83123 9.12982H4.90702C5.00806 9.12982 5.08385 9.15509 5.13437 9.20561C5.18489 9.25613 5.21015 9.31297 5.21015 9.37612C5.21015 9.4898 5.14068 9.57821 5.00175 9.64137C4.98911 9.654 4.96385 9.67294 4.92596 9.6982C4.88807 9.71084 4.85018 9.72978 4.81229 9.75504H4.79334L4.71756 9.84977C4.64177 9.9003 4.56599 9.95082 4.4902 10.0013C4.42705 10.0519 4.35127 10.0961 4.26285 10.134C4.22496 10.1845 4.18707 10.2287 4.14918 10.2666C4.12391 10.3045 4.11128 10.3361 4.11128 10.3613C4.11128 10.6645 4.20601 10.9865 4.39547 11.3276C4.58493 11.656 4.76176 12.0159 4.92596 12.4075C5.00175 12.5843 5.09016 12.818 5.19121 13.1085C5.30488 13.3864 5.38698 13.62 5.4375 13.8095C5.4375 13.7842 5.46276 13.7148 5.51329 13.6011C5.57644 13.4874 5.60802 13.4243 5.60802 13.4116V13.279C5.60802 13.2664 5.62065 13.2222 5.64591 13.1464C5.69643 13.058 5.75327 12.9695 5.81642 12.8811C5.89221 12.7801 5.96168 12.679 6.02483 12.578C6.07535 12.4517 6.11956 12.3254 6.15745 12.1991C6.20797 12.0728 6.26481 11.9465 6.32797 11.8202L6.34691 11.7444C6.34691 11.6054 6.34691 11.4476 6.34691 11.2707C6.34691 11.0939 6.37217 10.9297 6.4227 10.7781C6.48585 10.6139 6.5869 10.5066 6.72583 10.456L6.80162 10.3234L6.76372 10.2855C6.76372 10.2855 6.75741 10.2729 6.74478 10.2476C6.74478 10.2097 6.75109 10.1719 6.76372 10.134C6.76372 9.99503 6.83951 9.8182 6.99108 9.60347C7.14264 9.38875 7.25632 9.22455 7.3321 9.11088C7.42052 8.97194 7.5342 8.84563 7.67313 8.73196C7.81207 8.60565 8.00153 8.5425 8.24151 8.5425C8.39308 8.5425 8.53833 8.61197 8.67727 8.7509L8.69622 8.76985C8.72148 8.78248 8.74042 8.7888 8.75305 8.7888C8.77832 8.7888 8.79726 8.79511 8.80989 8.80774C8.83515 8.80774 8.86042 8.81406 8.88568 8.82669C8.91094 8.82669 8.92988 8.82669 8.94252 8.82669C9.14461 8.86458 9.29617 8.96563 9.39722 9.12982C9.64983 9.35718 9.77614 9.62874 9.77614 9.9445C9.77614 10.0834 9.74456 10.2097 9.68141 10.3234C9.63089 10.4245 9.56142 10.5066 9.473 10.5697C9.27091 10.8476 8.96146 10.9865 8.54465 10.9865C8.4436 10.9865 8.38045 10.9802 8.35519 10.9676H8.29835C8.12152 10.9676 8.03311 10.8729 8.03311 10.6834C8.03311 10.6202 8.05205 10.5634 8.08994 10.5129C8.14047 10.4497 8.20994 10.4182 8.29835 10.4182H8.39308L8.46886 10.4371H8.50676C8.53202 10.3992 8.5636 10.3613 8.60149 10.3234C8.63938 10.2855 8.6899 10.2603 8.75305 10.2476C8.81621 10.2224 8.87305 10.1592 8.92357 10.0582C8.97409 9.9445 8.99935 9.83083 8.99935 9.71715C8.99935 9.61611 8.98672 9.54664 8.96146 9.50874L8.94252 9.47085C8.91725 9.44559 8.88568 9.42665 8.84779 9.41401C8.82252 9.38875 8.79726 9.37612 8.772 9.37612H8.75305C8.5257 9.37612 8.29204 9.49611 8.05205 9.7361L7.99521 9.79294C7.83102 9.95713 7.71103 10.1024 7.63524 10.2287C7.57209 10.355 7.52157 10.4876 7.48367 10.6266C7.44578 10.7529 7.37631 10.9171 7.27527 11.1192C7.26264 11.1697 7.26264 11.2139 7.27527 11.2518C7.2879 11.2897 7.29421 11.3402 7.29421 11.4033C7.29421 11.4791 7.26895 11.5739 7.21843 11.6875C7.16791 11.8012 7.06686 11.9528 6.91529 12.1422L6.78267 12.2749C6.77004 12.338 6.74478 12.4012 6.70689 12.4643C6.66899 12.5275 6.63742 12.5906 6.61216 12.6538V12.8053C6.61216 12.9064 6.56795 13.0959 6.47953 13.3737C6.39112 13.639 6.29007 13.8347 6.1764 13.9611C6.16377 14.0495 6.13219 14.1442 6.08167 14.2452C6.03115 14.3337 5.93642 14.4347 5.79748 14.5484L5.72169 14.6052C5.62065 14.8705 5.4754 15.1357 5.28594 15.401C5.17226 15.742 5.02069 16.0704 4.83123 16.3861C4.79334 16.6261 4.66703 16.7651 4.45231 16.803C4.42705 16.8282 4.39547 16.8472 4.35758 16.8598C4.31969 16.8851 4.28811 16.9103 4.26285 16.9356L4.22496 16.9545L4.24391 16.9735C4.24391 17.0871 4.1997 17.1882 4.11128 17.2766C4.09865 17.4661 4.06708 17.624 4.01655 17.7503C3.97866 17.8766 3.82709 17.9334 3.56185 17.9208C3.52396 18.0092 3.4608 18.0913 3.37239 18.1671C3.35976 18.205 3.34081 18.2365 3.31555 18.2618C3.29029 18.2997 3.2524 18.3313 3.20188 18.3565C3.11346 18.4197 2.97452 18.4702 2.78506 18.5081C2.5956 18.546 2.41246 18.5713 2.23563 18.5839C2.0588 18.5965 1.93249 18.6028 1.85671 18.6028Z" fill="#CCFF00"/>
<path d="M19.1364 16.7082C18.9343 16.6703 18.669 16.5819 18.3406 16.443C18.0249 16.304 17.7217 16.1967 17.4312 16.1209C17.3554 16.1462 17.286 16.1588 17.2228 16.1588C17.1597 16.1588 17.0649 16.1525 16.9386 16.1398C16.8123 16.1272 16.6923 16.102 16.5786 16.0641C16.4776 16.0262 16.4271 15.963 16.4271 15.8746C16.4271 15.8115 16.465 15.7357 16.5408 15.6473C16.6292 15.5462 16.7681 15.4957 16.9576 15.4957C17.0965 15.4957 17.2291 15.5146 17.3554 15.5525C17.4438 15.4641 17.4881 15.3189 17.4881 15.1168C17.5007 14.9147 17.507 14.7694 17.507 14.681C17.507 14.5673 17.5323 14.4789 17.5828 14.4158C17.6333 14.34 17.6838 14.2831 17.7344 14.2452L17.7722 14.2074C17.8228 14.0305 17.848 13.8221 17.848 13.5821C17.848 13.3295 17.8543 13.0895 17.867 12.8622C17.8922 12.6348 17.9617 12.4517 18.0754 12.3128C18.1133 12.2622 18.1259 12.2433 18.1133 12.2559C18.1133 12.2685 18.1259 12.2496 18.1512 12.1991C18.2269 12.098 18.2206 12.0033 18.1322 11.9149C18.0564 11.8265 18.0185 11.7065 18.0185 11.5549C18.0185 11.4918 18.0375 11.416 18.0754 11.3276C18.1133 11.2391 18.1764 11.1444 18.2648 11.0434C18.2901 11.0181 18.3027 11.0055 18.3027 11.0055C18.3027 10.9928 18.3027 10.9865 18.3027 10.9865C18.3027 10.8729 18.2396 10.7276 18.1133 10.5508C17.987 10.3613 17.8101 10.235 17.5828 10.1719C17.4565 10.2224 17.3302 10.2918 17.2039 10.3803C17.0776 10.456 16.9576 10.5445 16.8439 10.6455C16.7807 10.7339 16.7176 10.8097 16.6544 10.8729C16.6039 10.936 16.5534 10.9802 16.5029 11.0055C16.4902 11.0181 16.465 11.0307 16.4271 11.0434C16.3892 11.0434 16.3576 11.056 16.3323 11.0813C16.2313 11.2328 16.1429 11.3781 16.0671 11.517C16.0545 11.6433 16.0671 11.7633 16.105 11.877C16.1555 11.9907 16.1681 12.1296 16.1429 12.2938C16.1303 12.4201 16.1176 12.5717 16.105 12.7485C16.105 12.9253 16.0545 13.0643 15.9534 13.1653L15.9724 13.2032C15.985 13.2537 15.9976 13.3232 16.0103 13.4116C16.0229 13.4874 16.0292 13.5632 16.0292 13.639C16.0292 13.7274 16.0103 13.8095 15.9724 13.8853C15.9471 13.9611 15.8966 14.0116 15.8208 14.0368C15.8966 14.1126 15.9471 14.1695 15.9724 14.2074L16.0482 14.3021C16.1113 14.3905 16.1745 14.441 16.2376 14.4537L16.446 14.5105C16.6355 14.5231 16.7302 14.5989 16.7302 14.7378C16.7302 14.902 16.6229 15.0031 16.4081 15.041C16.3955 15.041 16.3766 15.041 16.3513 15.041C16.3387 15.0536 16.3197 15.0599 16.2945 15.0599C16.1934 15.0599 16.0608 15.0094 15.8966 14.9084C15.7703 14.8578 15.644 14.8136 15.5177 14.7757C15.404 14.7252 15.2777 14.7 15.1387 14.7C15.0251 14.7 14.9114 14.7189 14.7977 14.7568C14.6967 14.782 14.5956 14.8073 14.4946 14.8326C14.4441 14.8831 14.3746 14.921 14.2862 14.9462C14.1978 14.9715 14.1157 14.9968 14.0399 15.022C14.002 15.0726 13.9325 15.0978 13.8315 15.0978H13.6041C13.5283 15.0978 13.4589 15.0978 13.3957 15.0978C13.3326 15.1104 13.2884 15.1168 13.2631 15.1168C13.0484 15.1168 12.941 15.0536 12.941 14.9273C12.941 14.8389 12.9789 14.7568 13.0547 14.681C13.1305 14.6052 13.2126 14.561 13.301 14.5484C13.3641 14.5105 13.4399 14.4915 13.5283 14.4915C13.6546 14.4915 13.7746 14.4789 13.8883 14.4537C14.002 14.4158 14.1157 14.3842 14.2293 14.3589L14.2862 14.2452C14.3241 14.2326 14.362 14.2263 14.3999 14.2263C14.4504 14.2263 14.4946 14.2263 14.5325 14.2263C14.5451 14.1505 14.5451 14.081 14.5325 14.0179C14.5198 13.9421 14.5135 13.8726 14.5135 13.8095C14.5135 13.7084 14.5514 13.5948 14.6272 13.4685C14.7156 13.3295 14.7725 13.178 14.7977 13.0138C14.823 12.8369 14.8356 12.6601 14.8356 12.4833C14.8356 12.3822 14.8293 12.2875 14.8167 12.1991C14.8167 12.098 14.8167 12.0033 14.8167 11.9149C14.8167 11.4728 14.7788 11.1002 14.703 10.7971C14.6272 10.4813 14.3683 10.254 13.9262 10.115L13.8315 10.0582C13.6673 10.1213 13.5094 10.2034 13.3578 10.3045C13.2189 10.4055 13.0736 10.5003 12.9221 10.5887C12.6821 10.715 12.5179 10.7908 12.4295 10.816C12.3537 10.8413 12.2905 10.9613 12.24 11.176C12.24 11.277 12.24 11.3781 12.24 11.4791C12.2526 11.5675 12.259 11.6496 12.259 11.7254C12.259 11.9275 12.2274 12.0665 12.1642 12.1422C12.139 12.1801 12.0884 12.2243 12.0127 12.2749L11.9937 12.2938L12.0316 12.3317C12.1705 12.458 12.24 12.6033 12.24 12.7675C12.24 12.9317 12.2021 13.1022 12.1263 13.279C12.0505 13.4432 12.0127 13.62 12.0127 13.8095C12.0253 13.8095 12.0821 13.8411 12.1832 13.9042C12.2968 13.9547 12.4105 14.0179 12.5242 14.0937C12.6505 14.1568 12.7326 14.201 12.7705 14.2263C12.9094 14.2895 12.9789 14.3779 12.9789 14.4915C12.9789 14.6684 12.8715 14.7568 12.6568 14.7568C12.5684 14.7568 12.4484 14.7126 12.2968 14.6242C12.1453 14.5231 12.019 14.4473 11.9179 14.3968L11.899 14.4158C11.8232 14.4915 11.7348 14.5294 11.6337 14.5294C11.558 14.5294 11.4948 14.5231 11.4443 14.5105C11.3938 14.4852 11.3306 14.4726 11.2548 14.4726C11.1538 14.4726 11.0464 14.4915 10.9327 14.5294C10.8317 14.5547 10.7306 14.58 10.6296 14.6052C10.6043 14.6305 10.5664 14.6557 10.5159 14.681C10.4275 14.782 10.2696 14.8831 10.0423 14.9841C9.81492 15.0852 9.64441 15.1357 9.53073 15.1357C9.31601 15.1357 9.20865 15.0536 9.20865 14.8894C9.20865 14.7126 9.31601 14.5926 9.53073 14.5294C9.59388 14.5042 9.66335 14.4789 9.73914 14.4537C9.82755 14.4158 9.91596 14.3779 10.0044 14.34C10.0296 14.1758 10.1181 14.0937 10.2696 14.0937H10.4212C10.6485 13.9295 10.7812 13.7463 10.8191 13.5442C10.8696 13.2664 10.9138 13.0832 10.9517 12.9948C11.0022 12.9064 11.0275 12.7611 11.0275 12.5591C11.0275 12.357 11.0085 12.1612 10.9706 11.9717C10.9454 11.7823 10.9327 11.5991 10.9327 11.4223C10.9327 11.1823 10.9833 10.9613 11.0843 10.7592L11.1032 10.7023C11.0654 10.6645 11.0275 10.6329 10.9896 10.6076L10.8948 10.5318C10.8443 10.4939 10.7875 10.4371 10.7243 10.3613C10.6612 10.3739 10.5917 10.3929 10.5159 10.4182C10.4401 10.4434 10.358 10.456 10.2696 10.456C10.2191 10.456 10.1749 10.4624 10.137 10.475C10.0991 10.4876 10.0486 10.4939 9.98543 10.4939C9.89702 10.4939 9.82755 10.4624 9.77703 10.3992C9.73913 10.3361 9.72019 10.2729 9.72019 10.2097C9.72019 10.0203 9.8086 9.92556 9.98543 9.92556H10.2696C10.3833 9.92556 10.4907 9.9003 10.5917 9.84977C10.6928 9.78662 10.8064 9.75504 10.9327 9.75504H11.0275L11.0843 9.7361L11.1601 9.71715C11.3369 9.654 11.5264 9.54032 11.7285 9.37612C11.9306 9.21192 12.0821 9.08562 12.1832 8.9972C12.2463 8.93405 12.3221 8.90247 12.4105 8.90247C12.5747 8.90247 12.6568 8.98457 12.6568 9.14877C12.6568 9.22455 12.6442 9.28139 12.6189 9.31928C12.48 9.63505 12.3789 9.9445 12.3158 10.2476L12.3537 10.2287C12.6821 10.0645 13.0105 9.88135 13.3389 9.67926C13.6673 9.47717 14.0272 9.37612 14.4188 9.37612C14.6714 9.37612 14.9619 9.50243 15.2903 9.75504C15.6187 9.99503 15.8587 10.2729 16.0103 10.5887C16.1871 10.3739 16.3955 10.1782 16.6355 10.0013C16.6607 9.96345 16.686 9.92556 16.7113 9.88766C16.7492 9.84977 16.7934 9.80557 16.8439 9.75504C16.907 9.70452 16.9765 9.66031 17.0523 9.62242C17.1281 9.58453 17.2102 9.5719 17.2986 9.58453H17.3554C17.6712 9.44559 17.9806 9.37612 18.2838 9.37612C18.5996 9.37612 18.8458 9.48348 19.0227 9.6982C19.1995 9.91293 19.3258 10.1719 19.4016 10.475C19.4774 10.7655 19.5153 11.0307 19.5153 11.2707C19.5153 11.5865 19.4648 11.9338 19.3637 12.3128C19.2627 12.6917 19.1427 13.0516 19.0037 13.3927C18.9911 13.4053 18.9848 13.4306 18.9848 13.4685C18.9848 13.5442 18.9974 13.639 19.0227 13.7526C19.0606 13.8537 19.0669 13.9484 19.0416 14.0368C19.0037 14.2642 18.9279 14.5042 18.8143 14.7568C18.7006 15.0094 18.6122 15.262 18.549 15.5146C18.549 15.5273 18.5617 15.5588 18.5869 15.6094C18.6753 15.8999 18.9027 16.0893 19.269 16.1777C19.4205 16.2156 19.4963 16.304 19.4963 16.443C19.4963 16.5188 19.4648 16.5819 19.4016 16.6324C19.3384 16.6956 19.25 16.7209 19.1364 16.7082Z" fill="#CCFF00"/>
<path d="M23.6969 15.1168C23.6842 15.1168 23.6653 15.1104 23.64 15.0978C23.6274 15.0978 23.6085 15.0978 23.5832 15.0978L23.3558 15.041C23.2674 15.0157 23.1853 14.9968 23.1095 14.9841C23.0464 14.9589 23.0022 14.9462 22.9769 14.9462C22.9264 14.9462 22.8632 14.9589 22.7875 14.9841C22.7117 15.0094 22.6548 15.022 22.6169 15.022C22.6043 15.022 22.5854 15.0157 22.5601 15.0031C22.5348 14.9905 22.5159 14.9841 22.5033 14.9841C22.4654 14.9715 22.4275 14.9589 22.3896 14.9462C22.3517 14.9336 22.3075 14.9273 22.257 14.9273C22.1938 14.902 22.118 14.8957 22.0296 14.9084C21.9412 14.9084 21.878 14.9084 21.8402 14.9084C21.8275 14.9084 21.7707 14.9084 21.6696 14.9084C21.5812 14.9084 21.4802 14.9147 21.3665 14.9273C21.2023 14.9652 21.0318 14.9968 20.855 15.022C20.6908 15.0473 20.5771 15.0599 20.5139 15.0599C20.4508 15.0599 20.3876 15.0473 20.3245 15.022C20.274 14.9968 20.2171 14.9841 20.154 14.9841C20.0655 14.9841 19.9961 14.9526 19.9456 14.8894C19.9077 14.8263 19.8887 14.7631 19.8887 14.7C19.8887 14.5105 19.9771 14.4158 20.154 14.4158C20.2171 14.4158 20.2803 14.4284 20.3434 14.4537C20.4066 14.4789 20.4634 14.4915 20.5139 14.4915H20.6087C20.6466 14.4663 20.6781 14.4473 20.7034 14.4347C20.7413 14.4221 20.7602 14.4158 20.7602 14.4158C20.7855 14.4158 20.836 14.4284 20.9118 14.4537C21.0128 14.4284 21.1139 14.4094 21.2149 14.3968C21.316 14.3716 21.3918 14.3526 21.4423 14.34C21.4676 14.1758 21.4928 14.0242 21.5181 13.8853C21.556 13.7337 21.6886 13.6516 21.9159 13.639V13.62L21.9728 13.5253C21.998 13.4748 22.0296 13.4243 22.0675 13.3737C22.118 13.3106 22.1749 13.2537 22.238 13.2032C22.2128 13.1022 22.1496 12.9822 22.0486 12.8432C21.9475 12.6917 21.897 12.5527 21.897 12.4264C21.897 12.338 21.9349 12.2685 22.0107 12.218C22.0359 12.1928 22.0549 12.0854 22.0675 11.8959C22.0801 11.7065 22.0928 11.5044 22.1054 11.2897C22.1307 11.0623 22.1686 10.9044 22.2191 10.816C22.2443 10.7655 22.238 10.696 22.2001 10.6076C22.1749 10.5066 22.1622 10.3992 22.1622 10.2855C22.1622 10.1213 22.2128 9.96976 22.3138 9.83083C22.3138 9.67926 22.3643 9.54032 22.4654 9.41401C22.3138 9.31297 22.238 9.19298 22.238 9.05404C22.238 8.95299 22.257 8.84563 22.2949 8.73196C22.2949 8.74459 22.2949 8.74459 22.2949 8.73196C22.3075 8.71933 22.3201 8.66881 22.3328 8.58039C22.3454 8.46671 22.3328 8.36567 22.2949 8.27725C22.257 8.17621 22.2696 8.09411 22.3328 8.03096C22.3201 8.00569 22.3075 7.98043 22.2949 7.95517C22.2949 7.92991 22.2949 7.90465 22.2949 7.87939C22.2949 7.74045 22.3643 7.63309 22.5033 7.55731L22.5601 7.51941C22.5601 7.50678 22.5538 7.50047 22.5412 7.50047C22.5412 7.50047 22.5412 7.49415 22.5412 7.48152C22.5285 7.38048 22.5033 7.29838 22.4654 7.23522C22.4275 7.15944 22.358 7.12155 22.257 7.12155C22.2317 7.12155 22.1686 7.13418 22.0675 7.15944C21.9917 7.1847 21.9412 7.19733 21.9159 7.19733C21.8907 7.19733 21.8212 7.17839 21.7075 7.14049C21.5939 7.1026 21.537 7.05839 21.537 7.00787C21.537 6.94472 21.556 6.88788 21.5939 6.83736C21.6318 6.7742 21.6696 6.73 21.7075 6.70474C21.8465 6.62895 22.0107 6.54054 22.2001 6.43949C22.3896 6.33845 22.5727 6.22477 22.7496 6.09846L22.8443 5.98479L22.8822 5.92795C22.8948 5.92795 22.9011 5.92795 22.9011 5.92795C22.9011 5.91532 22.9074 5.909 22.9201 5.909L23.0527 5.81427L23.2232 5.71954C23.2358 5.70691 23.2485 5.69428 23.2611 5.68165C23.2864 5.66902 23.3053 5.65639 23.3179 5.64376C23.3685 5.59324 23.4253 5.54271 23.4885 5.49219C23.5642 5.42904 23.6274 5.39746 23.6779 5.39746C23.8042 5.39746 23.88 5.42904 23.9053 5.49219C23.9305 5.55534 23.9495 5.63744 23.9621 5.73849C23.9621 5.8269 23.9558 5.88374 23.9432 5.909L23.8295 6.21214C23.7663 6.37634 23.7095 6.55948 23.659 6.76157C23.6211 6.95103 23.5769 7.14049 23.5264 7.32995C23.5137 7.38048 23.5137 7.43731 23.5264 7.50047C23.539 7.56362 23.539 7.62046 23.5264 7.67098C23.5011 7.79729 23.4695 7.9236 23.4316 8.0499C23.4064 8.16358 23.3874 8.28357 23.3748 8.40988C23.3622 8.51092 23.3369 8.74459 23.299 9.11088C23.2737 9.47717 23.2422 9.90661 23.2043 10.3992C23.1664 10.8792 23.1285 11.3528 23.0906 11.8202C23.0527 12.2875 23.0211 12.6854 22.9959 13.0138C22.9706 13.3295 22.958 13.4937 22.958 13.5064C22.958 13.5442 22.958 13.6263 22.958 13.7526C22.9706 13.879 22.9895 13.9863 23.0148 14.0747C23.0653 14.2642 23.1916 14.4284 23.3937 14.5673C23.419 14.58 23.4506 14.5926 23.4885 14.6052C23.5264 14.6179 23.5579 14.6305 23.5832 14.6431C23.6085 14.6557 23.64 14.6621 23.6779 14.6621C23.7158 14.6621 23.7537 14.6747 23.7916 14.7C23.8421 14.7126 23.8863 14.7252 23.9242 14.7378C23.9747 14.7505 24 14.782 24 14.8326C24 14.8957 23.9621 14.9589 23.8863 15.022C23.8232 15.0852 23.76 15.1168 23.6969 15.1168Z" fill="#CCFF00"/>
</svg>
