<svg width="24" height="24" viewBox="0 0 24 24" fill="none" xmlns="http://www.w3.org/2000/svg">
<path d="M3.9055 18.11C3.45293 18.11 3.08635 17.9697 2.80575 17.6891C2.53421 17.4176 2.39844 17.0465 2.39844 16.5758C2.39844 16.3314 2.43917 16.0599 2.52064 15.7612C2.61115 15.4715 2.75597 15.1638 2.9551 14.8379C2.51158 14.8108 2.145 14.6614 1.85536 14.3899C1.57476 14.1184 1.43447 13.7065 1.43447 13.1544C1.43447 12.8285 1.4752 12.48 1.55666 12.1089C1.64718 11.7288 1.73316 11.3758 1.81463 11.0499C1.89609 10.715 1.93682 10.4571 1.93682 10.276C1.93682 10.1403 1.90967 10.0452 1.85536 9.99091C1.80105 9.92755 1.73769 9.89587 1.66528 9.89587C1.59287 9.89587 1.5114 9.92755 1.42089 9.99091C1.33943 10.0452 1.27607 10.1312 1.23081 10.2489L1 10.0045C1.05431 9.72389 1.17198 9.47498 1.353 9.25775C1.53403 9.04051 1.75579 8.86854 2.01828 8.74182C2.28077 8.6151 2.55232 8.55174 2.83291 8.55174C3.14971 8.55174 3.42578 8.65583 3.66111 8.86401C3.89645 9.06314 4.01412 9.42972 4.01412 9.96376C4.01412 10.2987 3.97339 10.6607 3.89192 11.0499C3.81046 11.4301 3.729 11.7921 3.64754 12.1361C3.56607 12.471 3.52534 12.738 3.52534 12.9371C3.52534 13.1182 3.56155 13.2539 3.63396 13.3445C3.71542 13.4259 3.80594 13.4667 3.9055 13.4667C4.03222 13.4667 4.17704 13.3988 4.33997 13.263C4.50289 13.1182 4.65677 12.8828 4.80159 12.557C4.94641 12.2311 5.04145 11.7921 5.08671 11.24C5.10481 11.068 5.11839 10.8508 5.12744 10.5883C5.13649 10.3168 5.14554 10.0678 5.15459 9.84156C5.16365 9.60623 5.16817 9.4614 5.16817 9.4071C5.16817 9.08124 5.28584 8.85496 5.52118 8.72824C5.76556 8.59247 6.03258 8.52458 6.32223 8.52458C6.57566 8.52458 6.81553 8.57437 7.04181 8.67393C7.2681 8.7735 7.42197 8.94095 7.50343 9.17628L7.53059 9.25775C7.44913 9.33016 7.37671 9.57455 7.31335 9.99091C7.25905 10.4073 7.19116 10.9639 7.1097 11.6609C7.05539 12.1135 6.9875 12.6249 6.90604 13.1951C6.82458 13.7653 6.71144 14.3401 6.56661 14.9194C6.43084 15.4896 6.24529 16.0146 6.00995 16.4943C5.78367 16.9831 5.49855 17.3723 5.15459 17.662C4.81064 17.9607 4.39428 18.11 3.9055 18.11ZM3.57965 16.5487C3.86024 16.5487 4.10916 16.2907 4.32639 15.7748C4.55268 15.2679 4.72918 14.5438 4.8559 13.6024C4.27661 14.3446 3.87835 14.9285 3.66111 15.3539C3.44388 15.7793 3.33526 16.087 3.33526 16.2771C3.33526 16.4581 3.41672 16.5487 3.57965 16.5487Z" fill="#D9F238"/>
<path d="M9.68139 15.4489C9.35554 15.4489 9.06137 15.3177 8.79888 15.0552C8.54544 14.7836 8.41872 14.4125 8.41872 13.9418C8.41872 13.7065 8.4504 13.4395 8.51376 13.1408C8.57712 12.8331 8.64501 12.5208 8.71742 12.204C8.79888 11.8872 8.87129 11.5885 8.93465 11.3079C8.99801 11.0273 9.02969 10.792 9.02969 10.6019C9.02969 10.448 8.99349 10.3258 8.92107 10.2353C8.84866 10.1357 8.75362 10.086 8.63595 10.086C8.48208 10.086 8.31463 10.1765 8.1336 10.3575L8.05214 10.3032C8.04309 10.1584 8.07477 9.98639 8.14718 9.78725C8.21959 9.58812 8.33726 9.39804 8.50018 9.21702C8.66311 9.02694 8.87582 8.86854 9.13831 8.74182C9.4008 8.6151 9.71307 8.55174 10.0751 8.55174C10.4824 8.55174 10.7857 8.69656 10.9848 8.9862C11.193 9.2668 11.2971 9.60623 11.2971 10.0045C11.2971 10.0497 11.2971 10.0995 11.2971 10.1538C11.2971 10.1991 11.2925 10.2444 11.2835 10.2896C11.4555 10.009 11.6546 9.73747 11.8809 9.47498C12.1162 9.21249 12.3787 8.99526 12.6684 8.82328C12.9671 8.64225 13.2884 8.55174 13.6323 8.55174C14.0758 8.55174 14.3836 8.69656 14.5556 8.9862C14.7275 9.2668 14.8135 9.58812 14.8135 9.95018C14.8135 10.0226 14.809 10.095 14.8 10.1674C14.8 10.2308 14.7954 10.2941 14.7864 10.3575C14.9765 10.0769 15.1846 9.80083 15.4109 9.52929C15.6463 9.2487 15.9133 9.01789 16.212 8.83686C16.5107 8.64678 16.8546 8.55174 17.2438 8.55174C17.7236 8.55174 18.0494 8.69203 18.2214 8.97263C18.4024 9.25322 18.4929 9.5836 18.4929 9.96376C18.4929 10.2987 18.4522 10.6833 18.3707 11.1178C18.2893 11.5432 18.2078 11.9641 18.1264 12.3805C18.0449 12.7968 18.0042 13.1499 18.0042 13.4395C18.0042 13.6115 18.0268 13.7518 18.072 13.8604C18.1264 13.969 18.2123 14.0233 18.33 14.0233C18.4296 14.0233 18.5201 13.9962 18.6015 13.9418C18.6921 13.8785 18.7554 13.8061 18.7916 13.7246L18.9002 13.7653C18.9002 14.1002 18.8052 14.3944 18.6151 14.6479C18.425 14.9013 18.1852 15.1004 17.8955 15.2453C17.6059 15.381 17.3162 15.4489 17.0266 15.4489C16.6736 15.4489 16.3613 15.3312 16.0898 15.0959C15.8273 14.8606 15.696 14.4714 15.696 13.9283C15.696 13.5934 15.7368 13.2313 15.8182 12.8421C15.9088 12.4529 15.9947 12.0773 16.0762 11.7152C16.1667 11.3441 16.212 11.0409 16.212 10.8055C16.212 10.4706 16.0943 10.3032 15.859 10.3032C15.687 10.3032 15.515 10.3756 15.343 10.5204C15.1801 10.6562 15.0308 10.8417 14.895 11.0771C14.7683 11.3034 14.6642 11.5432 14.5827 11.7967C14.5013 12.0501 14.4605 12.2945 14.4605 12.5298C14.4605 12.7471 14.4832 12.9869 14.5284 13.2494C14.5827 13.5029 14.6099 13.7472 14.6099 13.9826C14.6099 14.4533 14.4786 14.8153 14.2161 15.0687C13.9537 15.3222 13.6459 15.4489 13.2929 15.4489C12.9671 15.4489 12.6729 15.3403 12.4104 15.1231C12.157 14.9058 12.0302 14.58 12.0302 14.1455C12.0302 13.9464 12.0574 13.7065 12.1117 13.4259C12.166 13.1363 12.2248 12.8376 12.2882 12.5298C12.3606 12.213 12.424 11.9098 12.4783 11.6202C12.5326 11.3305 12.5597 11.0771 12.5597 10.8598C12.5597 10.6879 12.5326 10.5521 12.4783 10.4525C12.433 10.353 12.338 10.3032 12.1932 10.3032C11.985 10.3032 11.7858 10.4073 11.5958 10.6155C11.4057 10.8236 11.2428 11.0771 11.107 11.3758C10.9712 11.6654 10.8807 11.946 10.8354 12.2176C10.8264 12.2809 10.8173 12.3307 10.8083 12.3669C10.8083 12.4031 10.8083 12.4212 10.8083 12.4212C10.8083 12.7018 10.84 12.9598 10.9033 13.1951C10.9667 13.4214 10.9984 13.6567 10.9984 13.9011C10.9984 14.3446 10.8626 14.7157 10.5911 15.0144C10.3286 15.3041 10.0253 15.4489 9.68139 15.4489Z" fill="#D9F238"/>
<path d="M21.0992 15.4489C20.8548 15.4489 20.615 15.3901 20.3796 15.2724C20.1533 15.1457 19.9678 14.9466 19.823 14.675C19.6781 14.4035 19.6057 14.055 19.6057 13.6296C19.6057 13.2494 19.6555 12.8059 19.7551 12.299C19.8637 11.7831 19.9814 11.2491 20.1081 10.6969C20.2438 10.1448 20.3615 9.60623 20.4611 9.08124C20.5606 8.55626 20.6059 8.09012 20.5969 7.6828C20.5969 7.29359 20.5516 7.01753 20.4611 6.8546L20.4475 6.81387C20.5471 6.52422 20.7236 6.29794 20.977 6.13501C21.2305 5.97209 21.4975 5.89062 21.7781 5.89062C22.0949 5.89062 22.3755 6.01282 22.6198 6.25721C22.8733 6.49254 23 6.89081 23 7.45199C23 7.75069 22.9638 8.10822 22.8914 8.52458C22.819 8.9319 22.733 9.37089 22.6334 9.84156C22.5339 10.3032 22.4298 10.7603 22.3211 11.2129C22.2216 11.6654 22.1356 12.0818 22.0632 12.4619C21.9908 12.8421 21.9546 13.1544 21.9546 13.3988C21.9546 13.6522 21.9908 13.8287 22.0632 13.9283C22.1356 14.0188 22.2171 14.064 22.3076 14.064C22.4071 14.064 22.5022 14.0278 22.5927 13.9554C22.6832 13.874 22.742 13.8016 22.7692 13.7382L22.8778 13.7653C22.8688 14.0912 22.7737 14.3808 22.5927 14.6343C22.4207 14.8877 22.199 15.0869 21.9274 15.2317C21.6649 15.3765 21.3889 15.4489 21.0992 15.4489Z" fill="#D9F238"/>
</svg>
